<svg preserveAspectRatio="none" width="100%" height="100%" overflow="visible" style="display: block;" viewBox="0 0 158.947 22.3646" fill="none" xmlns="http://www.w3.org/2000/svg">
<g id="Logos/Seller Central/White">
<g id="Group">
<g id="Group_2">
<path id="Path" d="M37.7484 18.3962C34.2131 20.9869 29.0877 22.3646 24.6744 22.3646C18.4889 22.3646 12.9184 20.0941 8.70336 16.3148C8.37233 16.0178 8.66763 15.6126 9.06537 15.8425C13.6132 18.4704 19.2374 20.0528 25.0454 20.0528C28.9637 20.0528 33.2709 19.2453 37.2344 17.5759C37.832 17.3241 38.3332 17.9671 37.7482 18.3962" fill="var(--fill-0, #EC912D)"/>
<path id="Path_2" d="M39.2204 16.7282C38.7681 16.1534 36.2314 16.4559 35.0916 16.5914C34.7465 16.6325 34.6929 16.3329 35.004 16.116C37.028 14.7045 40.3437 15.1121 40.7291 15.5848C41.1173 16.0613 40.627 19.3626 38.7309 20.9381C38.4388 21.1802 38.1613 21.051 38.2907 20.7311C38.7176 19.6729 39.673 17.3035 39.2204 16.7282" fill="var(--fill-0, #EC912D)"/>
</g>
<path id="Path_3" d="M35.172 6.1448V4.7731C35.1733 4.5644 35.3312 4.42532 35.5222 4.42608L41.7125 4.42533C41.9103 4.42533 42.0694 4.56837 42.0694 4.77141V5.94761C42.0675 6.14518 41.9 6.40238 41.6034 6.81111L38.3966 11.3571C39.5868 11.3296 40.8459 11.5067 41.9274 12.1102C42.1714 12.2463 42.2368 12.4476 42.2558 12.6454V14.109C42.2558 14.3105 42.0334 14.5439 41.7999 14.4222C39.8948 13.4312 37.3663 13.323 35.2594 14.4347C35.0441 14.5483 34.8189 14.3184 34.8189 14.1163V12.7254C34.8189 12.5026 34.8233 12.1222 35.0494 11.7829L38.7643 6.49057L35.5298 6.49019C35.332 6.49019 35.1733 6.35017 35.172 6.14487" fill="var(--fill-0, white)"/>
<path id="Path_4" d="M12.591 14.711H10.7078C10.5286 14.6993 10.3855 14.5657 10.3708 14.3947L10.3723 4.79694C10.3723 4.60465 10.5348 4.45143 10.7357 4.45143L12.4897 4.45086C12.6731 4.46011 12.8203 4.59805 12.8317 4.77335V6.02635H12.8673C13.3243 4.81455 14.1857 4.24895 15.3457 4.24895C16.5235 4.24895 17.262 4.81449 17.7893 6.02635C18.2465 4.81455 19.2837 4.24895 20.3912 4.24895C21.1823 4.24895 22.0435 4.57201 22.5709 5.29925C23.1685 6.10727 23.046 7.27835 23.046 8.30845L23.0441 14.3656C23.0441 14.5569 22.8818 14.7109 22.6807 14.7109H20.7998C20.6107 14.6988 20.4621 14.5503 20.4621 14.3661L20.4616 9.27771C20.4616 8.87427 20.4967 7.86411 20.4085 7.48051C20.2681 6.83402 19.8461 6.65211 19.3014 6.65211C18.8442 6.65211 18.3695 6.95498 18.1758 7.43975C17.9828 7.92471 18.0003 8.73215 18.0003 9.27775V14.3656C18.0003 14.5569 17.8378 14.7109 17.6371 14.7109H15.756C15.5669 14.6988 15.4179 14.5503 15.4179 14.3661L15.416 9.27771C15.416 8.20741 15.5918 6.63231 14.256 6.63231C12.902 6.63231 12.955 8.16681 12.955 9.27771L12.9543 14.3655C12.9543 14.5569 12.7916 14.7108 12.5909 14.7108" fill="var(--fill-0, white)"/>
<path id="Shape" fill-rule="evenodd" clip-rule="evenodd" d="M51.7046 9.6616C51.7046 6.6322 50.1931 4.2487 47.3979 4.2487C44.6729 4.2487 43.161 6.5713 43.161 9.5607C43.161 12.5291 44.6554 14.913 47.3979 14.913C50.035 14.913 51.7046 12.5897 51.7046 9.6616ZM45.9386 9.2576C45.9386 8.086 46.0263 6.208 47.415 6.208L47.415 6.20802C48.0126 6.20802 48.4347 6.47032 48.6456 7.137C48.8919 7.9046 48.9273 8.87417 48.9273 9.682C48.9273 10.9136 48.8573 12.9333 47.3979 12.9333C45.9379 12.9333 45.9384 10.4858 45.9386 9.29823C45.9386 9.28452 45.9386 9.27097 45.9386 9.2576Z" fill="var(--fill-0, white)"/>
<path id="Path_5" d="M55.33 14.711H53.4534C53.2648 14.6989 53.1157 14.5504 53.1157 14.3662L53.1124 4.76494C53.1284 4.58907 53.2844 4.45151 53.4743 4.45151L55.2211 4.45094C55.3856 4.45962 55.5213 4.57077 55.5559 4.71965V6.18795H55.5912C56.1188 4.87475 56.8566 4.24905 58.1576 4.24905C59.0014 4.24905 59.8278 4.55173 60.3551 5.38015C60.8473 6.1476 60.8473 7.44005 60.8473 8.36915V14.409C60.8264 14.5788 60.6725 14.7111 60.4864 14.7111H58.5986C58.4242 14.6999 58.2836 14.5726 58.2634 14.409V9.19775C58.2634 8.14745 58.3866 6.61215 57.0856 6.61215C56.6284 6.61215 56.2065 6.91521 55.9956 7.37941C55.7319 7.96552 55.6965 8.55091 55.6965 9.19771V14.3657C55.6933 14.5571 55.5306 14.711 55.3299 14.711" fill="var(--fill-0, white)"/>
<path id="Shape_2" fill-rule="evenodd" clip-rule="evenodd" d="M31.6901 14.7304C31.8307 14.8055 32.0105 14.7981 32.135 14.687L32.1351 14.687L32.1396 14.6912C32.5156 14.3587 33.1992 13.7694 33.5836 13.4492C33.737 13.3246 33.7102 13.1227 33.5899 12.952C33.553 12.9013 33.5158 12.8517 33.4789 12.8024C33.1713 12.3919 32.879 12.0017 32.879 11.2191V8.30605C32.879 8.20544 32.8796 8.1055 32.8802 8.00633C32.8867 6.88813 32.8927 5.86803 32.051 5.08735C31.3285 4.39878 30.1311 4.15611 29.2146 4.15611C27.4228 4.15611 25.4231 4.82031 25.0031 7.01911C24.959 7.2531 25.1301 7.37576 25.2844 7.41029L27.1098 7.60673C27.2802 7.59805 27.4039 7.43124 27.4366 7.26254C27.5938 6.50507 28.2321 6.13974 28.9504 6.13974C29.338 6.13974 29.7781 6.28146 30.0075 6.62565C30.2445 6.97051 30.2408 7.42879 30.2375 7.8408C30.2371 7.88845 30.2367 7.93548 30.2367 7.98165V8.22451C30.0671 8.24341 29.8894 8.26132 29.7065 8.27976C28.7108 8.38014 27.5583 8.49634 26.6953 8.8727C25.5151 9.3786 24.6871 10.4108 24.6871 11.9289C24.6871 13.8718 25.9204 14.8438 27.5058 14.8438C28.8449 14.8438 29.5769 14.53 30.6105 13.4844C30.6628 13.5596 30.7098 13.6288 30.754 13.694C30.9991 14.0552 31.1605 14.2932 31.6901 14.7304ZM30.2368 10.2209C30.2368 10.1899 30.2368 10.1588 30.2368 10.1274V10.1274V9.7228C28.8743 9.7228 27.4356 10.0121 27.4356 11.6049C27.4356 12.4146 27.8583 12.9613 28.5805 12.9613C29.1087 12.9613 29.5848 12.6371 29.8841 12.1112C30.2381 11.4911 30.2375 10.9087 30.2368 10.2209Z" fill="var(--fill-0, white)"/>
<path id="Shape_3" fill-rule="evenodd" clip-rule="evenodd" d="M7.003 14.7304C7.14343 14.8055 7.32339 14.7981 7.44786 14.687L7.44786 14.687L7.45223 14.6912C7.82813 14.3587 8.51182 13.7694 8.89663 13.4492C9.04998 13.3246 9.02243 13.1227 8.90252 12.952C8.86573 12.9015 8.82869 12.852 8.79187 12.8029C8.48423 12.3922 8.19199 12.002 8.19199 11.2191V8.30605C8.19199 8.20595 8.19257 8.10652 8.19314 8.00785C8.19963 6.88905 8.20555 5.86838 7.36383 5.08735C6.64153 4.39878 5.44357 4.15611 4.52743 4.15611C2.73483 4.15611 0.73533 4.82031 0.31593 7.01911C0.27147 7.2531 0.44287 7.37576 0.59718 7.41029L2.42228 7.60673C2.59311 7.59805 2.71702 7.43124 2.7497 7.26254C2.9061 6.50507 3.54498 6.13974 4.2633 6.13974C4.65063 6.13974 5.09112 6.28146 5.3203 6.62565C5.557 6.97018 5.55325 7.42789 5.54988 7.83959C5.54949 7.88765 5.5491 7.93509 5.5491 7.98165V8.22451C5.37947 8.24342 5.20175 8.26134 5.01871 8.2798C4.02346 8.38017 2.8711 8.49638 2.0082 8.8727C0.82778 9.3786 0 10.4108 0 11.9289C0 13.8718 1.2331 14.8438 2.8187 14.8438C4.1575 14.8438 4.8895 14.53 5.9236 13.4844C5.97547 13.559 6.02205 13.6278 6.06594 13.6927C6.31097 14.0546 6.47212 14.2927 7.003 14.7304ZM5.54913 10.2228C5.54909 10.1912 5.54906 10.1594 5.54906 10.1274L5.54913 10.1274V9.7228C4.18713 9.7228 2.74803 10.0121 2.74803 11.6049C2.74803 12.4146 3.1712 12.9613 3.89313 12.9613C4.4216 12.9613 4.89763 12.6371 5.19693 12.1112C5.55049 11.4917 5.54986 10.9098 5.54913 10.2228Z" fill="var(--fill-0, white)"/>
</g>
<path id="Shape_4" fill-rule="evenodd" clip-rule="evenodd" d="M84.2472 14.155C84.7412 14.155 85.1972 14.079 85.6152 13.927V12.578C85.3492 12.616 85.0895 12.635 84.8362 12.635C84.5575 12.635 84.358 12.5685 84.2377 12.4355C84.1173 12.3025 84.0572 12.0903 84.0572 11.799V0H82.1762V11.913C82.1762 12.635 82.3535 13.1892 82.7082 13.5755C83.0628 13.9618 83.5758 14.155 84.2472 14.155ZM68.99 14.345C70.1047 14.345 70.9977 14.079 71.669 13.547C72.3403 13.015 72.676 12.2993 72.676 11.4C72.676 10.7667 72.5113 10.2505 72.182 9.8515C71.8526 9.4525 71.3143 9.10733 70.567 8.816L69.085 8.246C68.4896 8.018 68.0906 7.809 67.888 7.619C67.6853 7.429 67.584 7.16933 67.584 6.84C67.584 6.01667 68.192 5.605 69.408 5.605C70.244 5.605 71.156 5.76333 72.144 6.08V4.75C71.2573 4.34467 70.3137 4.142 69.313 4.142C68.2743 4.142 67.4352 4.39533 66.7955 4.902C66.1558 5.40867 65.836 6.0737 65.836 6.897C65.836 8.151 66.539 9.0377 67.945 9.557L69.56 10.165C70.0793 10.355 70.4371 10.545 70.6335 10.735C70.8298 10.925 70.928 11.172 70.928 11.476C70.928 11.932 70.7665 12.2803 70.4435 12.521C70.1205 12.7617 69.6486 12.882 69.028 12.882C68.0147 12.882 66.9127 12.6857 65.722 12.293V13.623C66.6466 14.1043 67.736 14.345 68.99 14.345ZM77.6066 14.345C78.9239 14.345 80.0386 14.098 80.9506 13.604V12.255C79.9119 12.6477 78.8923 12.844 77.8916 12.844C76.8149 12.844 76.0201 12.5843 75.5071 12.065C74.9941 11.5457 74.7249 10.7413 74.6996 9.652H81.0076C81.1089 9.17067 81.1596 8.6323 81.1596 8.037C81.1596 6.7957 80.8366 5.8362 80.1906 5.1585C79.5446 4.4808 78.6199 4.142 77.4166 4.142C75.9853 4.142 74.8706 4.5885 74.0726 5.4815C73.2746 6.3745 72.8756 7.6253 72.8756 9.234C72.8756 10.9187 73.2746 12.1917 74.0726 13.053C74.8706 13.9143 76.0486 14.345 77.6066 14.345ZM74.6996 8.398H79.4306C79.4432 8.29667 79.4496 8.132 79.4496 7.904C79.4496 7.13133 79.2691 6.54867 78.9081 6.156C78.5471 5.76333 78.0182 5.567 77.3216 5.567C76.5236 5.567 75.9029 5.8045 75.4596 6.2795C75.0162 6.7545 74.7629 7.46067 74.6996 8.398ZM89.7858 13.927C89.3678 14.079 88.9118 14.155 88.4178 14.155C87.7464 14.155 87.2334 13.9618 86.8788 13.5755C86.5241 13.1892 86.3468 12.635 86.3468 11.913V0H88.2278V11.799C88.2278 12.0903 88.2879 12.3025 88.4083 12.4355C88.5286 12.5685 88.7281 12.635 89.0068 12.635C89.2601 12.635 89.5198 12.616 89.7858 12.578V13.927ZM94.7544 14.345C96.0717 14.345 97.1864 14.098 98.0984 13.604V12.255C97.0597 12.6477 96.0401 12.844 95.0394 12.844C93.9627 12.844 93.1679 12.5843 92.6549 12.065C92.1419 11.5457 91.8727 10.7413 91.8474 9.652H98.1554C98.2567 9.17067 98.3074 8.6323 98.3074 8.037C98.3074 6.7957 97.9844 5.8362 97.3384 5.1585C96.6924 4.4808 95.7677 4.142 94.5644 4.142C93.1331 4.142 92.0184 4.5885 91.2204 5.4815C90.4224 6.3745 90.0234 7.6253 90.0234 9.234C90.0234 10.9187 90.4224 12.1917 91.2204 13.053C92.0184 13.9143 93.1964 14.345 94.7544 14.345ZM91.8474 8.398H96.5784C96.591 8.29667 96.5974 8.132 96.5974 7.904C96.5974 7.13133 96.4169 6.54867 96.0559 6.156C95.6949 5.76333 95.166 5.567 94.4694 5.567C93.6714 5.567 93.0507 5.8045 92.6074 6.2795C92.164 6.7545 91.9107 7.46067 91.8474 8.398ZM101.205 14.06V6.954C101.927 6.346 102.795 6.042 103.808 6.042C104.087 6.042 104.429 6.06733 104.834 6.118V4.408C104.555 4.37 104.296 4.351 104.055 4.351C103.688 4.351 103.346 4.40167 103.029 4.503C102.712 4.60433 102.402 4.7595 102.098 4.9685C101.794 5.1775 101.465 5.472 101.11 5.852L100.901 4.427H99.324V14.06H101.205ZM115.569 13.699C114.834 14.079 113.986 14.269 113.023 14.269C111.528 14.269 110.385 13.8415 109.593 12.9865C108.802 12.1315 108.406 10.8933 108.406 9.272C108.406 7.6633 108.814 6.41883 109.631 5.5385C110.448 4.65817 111.604 4.218 113.099 4.218C113.948 4.218 114.746 4.39533 115.493 4.75V6.099C114.771 5.871 114.062 5.757 113.365 5.757C112.301 5.757 111.535 6.02617 111.066 6.5645C110.597 7.1028 110.363 7.961 110.363 9.139V9.386C110.363 10.5387 110.6 11.3842 111.075 11.9225C111.55 12.4608 112.301 12.73 113.327 12.73C114.011 12.73 114.758 12.6033 115.569 12.35V13.699ZM120.367 14.345C121.684 14.345 122.799 14.098 123.711 13.604V12.255C122.672 12.6477 121.652 12.844 120.652 12.844C119.575 12.844 118.78 12.5843 118.267 12.065C117.754 11.5457 117.485 10.7413 117.46 9.652H123.768C123.869 9.17067 123.92 8.6323 123.92 8.037C123.92 6.7957 123.597 5.8362 122.951 5.1585C122.305 4.4808 121.38 4.142 120.177 4.142C118.745 4.142 117.631 4.5885 116.833 5.4815C116.035 6.3745 115.636 7.6253 115.636 9.234C115.636 10.9187 116.035 12.1917 116.833 13.053C117.631 13.9143 118.809 14.345 120.367 14.345ZM117.46 8.398H122.191C122.203 8.29667 122.21 8.132 122.21 7.904C122.21 7.13133 122.029 6.54867 121.668 6.156C121.307 5.76333 120.778 5.567 120.082 5.567C119.284 5.567 118.663 5.8045 118.22 6.2795C117.776 6.7545 117.523 7.46067 117.46 8.398ZM126.817 14.06V6.631C127.78 5.985 128.761 5.662 129.762 5.662C130.345 5.662 130.772 5.82033 131.045 6.137C131.317 6.45367 131.453 6.94767 131.453 7.619V14.06H133.334V6.992C133.334 6.06733 133.093 5.3612 132.612 4.8735C132.131 4.3858 131.428 4.142 130.503 4.142C129.173 4.142 127.906 4.59167 126.703 5.491L126.513 4.427H124.936V14.06H126.817ZM140.279 13.832C139.658 14.0727 138.955 14.193 138.17 14.193C136.371 14.193 135.472 13.2937 135.472 11.495V5.909H133.724V4.693L135.529 4.465L135.814 1.729H137.353V4.427H140.203V5.909H137.353V11.4C137.353 11.8687 137.458 12.198 137.667 12.388C137.876 12.578 138.233 12.673 138.74 12.673C139.259 12.673 139.772 12.6097 140.279 12.483V13.832ZM142.778 14.06V6.954C143.5 6.346 144.367 6.042 145.381 6.042C145.659 6.042 146.001 6.06733 146.407 6.118V4.408C146.128 4.37 145.868 4.351 145.628 4.351C145.26 4.351 144.918 4.40167 144.602 4.503C144.285 4.60433 143.975 4.7595 143.671 4.9685C143.367 5.1775 143.037 5.472 142.683 5.852L142.474 4.427H140.897V14.06H142.778ZM150.739 13.984C150.188 14.1993 149.64 14.307 149.095 14.307C148.196 14.307 147.477 14.0505 146.939 13.5375C146.401 13.0245 146.131 12.3373 146.131 11.476C146.131 10.5513 146.461 9.8135 147.119 9.2625C147.778 8.7115 148.665 8.436 149.779 8.436C150.514 8.436 151.312 8.54367 152.173 8.759V7.505C152.173 6.821 152.018 6.33967 151.708 6.061C151.398 5.78233 150.869 5.643 150.121 5.643C149.045 5.643 147.93 5.83933 146.777 6.232V4.902C147.233 4.66133 147.791 4.4745 148.449 4.3415C149.108 4.2085 149.773 4.142 150.444 4.142C151.648 4.142 152.534 4.3922 153.104 4.8925C153.674 5.3928 153.959 6.156 153.959 7.182V14.06H152.401L152.249 13.072C151.793 13.4647 151.29 13.7687 150.739 13.984ZM149.551 12.882C149.057 12.882 148.677 12.7522 148.411 12.4925C148.145 12.2328 148.012 11.8623 148.012 11.381C148.012 10.279 148.728 9.728 150.159 9.728C150.843 9.728 151.515 9.81033 152.173 9.975V11.913C151.287 12.559 150.413 12.882 149.551 12.882ZM158.947 13.927C158.529 14.079 158.073 14.155 157.579 14.155C156.908 14.155 156.395 13.9618 156.04 13.5755C155.685 13.1892 155.508 12.635 155.508 11.913V0H157.389V11.799C157.389 12.0903 157.449 12.3025 157.569 12.4355C157.69 12.5685 157.889 12.635 158.168 12.635C158.421 12.635 158.681 12.616 158.947 12.578V13.927Z" fill="var(--fill-0, white)"/>
</g>
</svg>
